<svg xmlns="http://www.w3.org/2000/svg" width="69" height="56" viewBox="0 0 69 56">
    <g fill="none" fill-rule="evenodd">
        <g>
            <g>
                <g>
                    <g>
                        <path fill="#DEE4F5" fill-rule="nonzero" d="M38.182 55.077c-.22-.001-.431-.083-.588-.228-.076-.073-.137-.16-.178-.254-.044-.093-.067-.194-.066-.295-.001-.104.021-.206.066-.3.018-.05.045-.095.078-.136.027-.042.06-.08.1-.114.33-.292.847-.292 1.177 0 .324.304.324.796 0 1.1-.156.145-.368.227-.589.227zM32.753 54.3c0-.43.373-.778.833-.778.46 0 .832.348.832.778 0 .43-.372.777-.832.777-.46 0-.833-.348-.833-.777zm-4.613 0c0-.43.373-.778.833-.778.46 0 .832.348.832.778-.003.428-.374.774-.832.777-.224.004-.44-.076-.6-.222-.16-.146-.25-.346-.25-.555h.017zm-4.619 0c0-.43.373-.778.833-.778.46 0 .833.348.833.778 0 .43-.373.777-.833.777-.224.004-.44-.076-.6-.222-.16-.146-.25-.346-.25-.555h.017zm-4.613 0c0-.43.373-.778.833-.778.46 0 .832.348.832.778 0 .43-.372.777-.832.777-.227.009-.447-.07-.61-.216-.164-.147-.257-.35-.256-.561h.033zm-4.613 0c0-.43.373-.778.832-.778.46 0 .833.348.833.778 0 .43-.373.777-.833.777-.223.004-.44-.076-.6-.222-.159-.146-.249-.346-.249-.555h.017zm-4.619 0c0-.43.373-.778.833-.778.46 0 .832.348.832.778 0 .43-.372.777-.832.777-.224.003-.439-.077-.598-.223-.16-.146-.25-.346-.252-.554h.017zm-4.613 0c0-.43.373-.778.833-.778.46 0 .832.348.832.778 0 .43-.373.777-.832.777-.224.004-.44-.076-.6-.222-.16-.146-.25-.346-.25-.555h.017zM1.266 55.077c-.221 0-.433-.082-.589-.228-.158-.144-.246-.343-.244-.55 0-.205.088-.403.244-.549.038-.038.08-.071.128-.098.044-.03.093-.055.144-.073.05-.02.102-.036.156-.046.106-.016.215-.016.322 0 .053.01.105.025.155.046.051.02.1.044.144.073.047.028.09.061.128.098.156.146.244.344.244.55-.001.206-.089.403-.244.55-.156.145-.368.227-.588.227zM.433 50.189c0-.43.373-.778.833-.778.46 0 .832.349.832.778 0 .43-.372.778-.832.778-.46 0-.833-.349-.833-.778zm0-4.106c0-.429.373-.777.833-.777.46 0 .832.348.832.777 0 .43-.372.778-.832.778-.46 0-.833-.348-.833-.778zm0-4.105c0-.43.373-.778.833-.778.222 0 .436.084.592.232.157.148.243.348.24.556 0 .43-.372.778-.832.778-.46 0-.833-.348-.833-.778v-.01zm0-4.11c0-.43.373-.778.833-.778.46 0 .832.348.832.777 0 .43-.372.778-.832.778-.46 0-.833-.348-.833-.778zm0-4.106c0-.43.373-.778.833-.778.46 0 .832.348.832.778 0 .43-.372.777-.832.777-.46 0-.833-.348-.833-.777zm0-4.111c0-.43.373-.778.833-.778.46 0 .832.349.832.778 0 .43-.372.778-.832.778-.46 0-.833-.349-.833-.778zm0-4.106c0-.429.373-.777.833-.777.46 0 .832.348.832.777 0 .43-.372.778-.832.778-.46 0-.833-.348-.833-.778zM1.266 22.218c-.221 0-.433-.083-.589-.229-.155-.146-.243-.343-.244-.549 0-.206.088-.404.244-.55.038-.038.08-.071.128-.098.046-.023.094-.042.144-.057l.161-.057c.106-.02.216-.02.322 0l.156.041.144.073c.046.028.09.061.128.098.156.146.244.344.244.55 0 .43-.373.778-.833.778h-.005zM32.753 21.44c0-.43.373-.778.833-.778.46 0 .832.349.832.778 0 .43-.372.778-.832.778-.46 0-.833-.349-.833-.778zm-4.613 0c0-.43.373-.778.833-.778.46 0 .832.349.832.778 0 .43-.373.778-.832.778-.224.004-.44-.076-.6-.223-.16-.146-.25-.346-.25-.555h.017zm-4.619 0c0-.43.373-.778.833-.778.46 0 .833.349.833.778 0 .43-.373.778-.833.778-.224.004-.44-.076-.6-.223-.16-.146-.25-.346-.25-.555h.017zm-4.613 0c0-.43.373-.778.833-.778.46 0 .832.349.832.778 0 .43-.372.778-.832.778-.227.008-.447-.07-.61-.217-.164-.147-.257-.35-.256-.561h.033zm-4.613 0c0-.43.373-.778.832-.778.46 0 .833.349.833.778 0 .43-.373.778-.833.778-.223.004-.44-.076-.6-.223-.159-.146-.249-.346-.249-.555h.017zm-4.619 0c0-.43.373-.778.833-.778.46 0 .832.349.832.778 0 .43-.372.778-.832.778-.224.004-.44-.076-.6-.223-.16-.146-.25-.346-.25-.555h.017zm-4.613 0c0-.43.373-.778.833-.778.46 0 .832.349.832.778 0 .43-.373.778-.832.778-.224.004-.44-.076-.6-.223-.16-.146-.25-.346-.25-.555h.017zM38.182 22.218c-.28.002-.541-.128-.696-.346-.154-.217-.18-.493-.07-.733.02-.048.046-.093.078-.134.028-.042.062-.08.1-.115.198-.183.481-.262.755-.212l.155.041c.048.021.095.046.139.073.047.027.09.06.128.098.04.035.075.073.105.115 0 .046.056.088.078.134.02.047.035.096.044.145.056.256-.03.521-.227.705-.038.037-.08.069-.128.094-.043.029-.09.053-.139.072-.101.042-.21.063-.322.063zM37.35 50.189c0-.43.372-.778.832-.778.46 0 .833.349.833.778 0 .43-.373.778-.833.778-.46 0-.832-.349-.832-.778zm0-4.106c0-.429.372-.777.832-.777.46 0 .833.348.833.777 0 .43-.373.778-.833.778-.46 0-.832-.348-.832-.778zm0-4.105c0-.43.371-.78.832-.783.224.002.437.086.593.235.157.149.243.35.24.558-.003.428-.375.773-.833.773-.457 0-.83-.345-.832-.773v-.01zm0-4.11c0-.43.372-.778.832-.778.46 0 .833.348.833.777 0 .43-.373.778-.833.778-.46 0-.832-.348-.832-.778zm0-4.106c0-.43.372-.778.832-.778.46 0 .833.348.833.778 0 .43-.373.777-.833.777-.46 0-.832-.348-.832-.777zm0-4.111c0-.43.372-.778.832-.778.46 0 .833.349.833.778 0 .43-.373.778-.833.778-.46 0-.832-.349-.832-.778zm0-4.106c0-.429.372-.777.832-.777.46 0 .833.348.833.777 0 .43-.373.778-.833.778-.46 0-.832-.348-.832-.778z" transform="translate(-920 -486) translate(256 268) translate(648 202) translate(16 16)"/>
                        <path fill="#FFF" fill-rule="nonzero" d="M9.512 0.743L60.174 0.743 60.174 46.127 9.512 46.127z" transform="translate(-920 -486) translate(256 268) translate(648 202) translate(16 16)"/>
                        <path fill="#DEE4F5" fill-rule="nonzero" d="M60.926 46.85h-6.434c-1.066 0-2.154-.03-3.18 0-.523 0-1.028.053-1.56.053h-1.616c-1.11-.037-2.193-.089-3.253-.083l-3.153.077-6.318.171c-1.06 0-2.115.068-3.192.052-1.077-.015-2.16-.067-3.236-.088-1.077-.02-2.138 0-3.192.031-1.055.031-2.115.088-3.181.099-2.149-.037-4.286-.073-6.429-.135l-1.599-.042h-4.79c-.307 0-.556-.232-.556-.518 0-1.892-.216-3.779-.094-5.67.104-.943.146-1.89.128-2.836-.034-.472-.095-.95-.1-1.42-.006-.473 0-.944 0-1.416 0-3.784.116-7.568.089-11.347v-2.836c0-.943.094-1.892.138-2.84.045-.949.106-1.887.073-2.836-.034-.948-.134-1.887-.128-2.835 0-1.892.166-3.78.205-5.671.04-1.892 0-3.785-.044-5.677 0-.155.133-.282.3-.285 2.11-.046 4.224 0 6.334 0 2.11 0 4.219 0 6.334.057 1.055 0 2.11.026 3.164 0L28.8.762c2.116-.083 4.225-.124 6.335-.171 2.11-.047 4.219-.062 6.334-.093 2.115-.031 4.219.108 6.328.134 2.11.026 4.225-.083 6.334-.124 2.11-.041 4.225-.171 6.334-.052h.045c.337.016.608.266.627.58 0 .483-.033.96-.039 1.437l.034 1.43.06 2.872c0 .96 0 1.913-.066 2.862-.067.948-.144 1.886-.15 2.84 0 1.908.089 3.841-.05 5.702-.043.961-.022 1.924.061 2.883.053.954.053 1.911 0 2.866-.089 1.877-.139 3.758-.144 5.666-.006 1.908.094 3.872 0 5.702s0 3.805.044 5.76c.034.984 0 1.933.034 2.897.033.964.016 1.954.005 2.898zm-.944-.88v-2.815-2.79c.034-1.84.1-3.67-.033-5.624-.055-.969-.105-1.928-.094-2.856l.06-2.768c0-1.866-.1-3.784-.205-5.702-.072-.927-.072-1.857 0-2.784.12-.92.154-1.848.1-2.773-.084-.94-.114-1.883-.088-2.825 0-.923.127-1.84.127-2.779v-1.41L59.76 9.43c-.066-.943-.066-1.876-.05-2.81l.095-2.799.044-1.4V1.01l.633.597c-4.225.166-8.444-.202-12.668-.093-1.055 0-2.11.098-3.164.15-.528.036-1.055.052-1.583.067-.527.016-1.054.026-1.582 0-2.115 0-4.224.026-6.334-.036-2.11-.062-4.219-.047-6.334-.171-2.105-.154-4.219-.188-6.328-.104-4.225.166-8.444.25-12.669.197l.639-.58c-.078 1.892-.228 3.784-.139 5.702.089 1.918.322 3.779.328 5.67 0 .95-.19 1.893-.278 2.836-.033.473-.033.948 0 1.42 0 .472.055.944.1 1.416.122.943.188 1.891.2 2.84.027.944-.028 1.887-.045 2.836l-.077 2.8v2.835l-.045 5.702v1.415c0 .472-.089.949-.133 1.42-.038.946-.012 1.893.078 2.836.094 1.892-.134 3.779-.156 5.671l-.466-.435c4.197.077 8.394.041 12.585.03l3.147.032c1.05 0 2.104 0 3.137-.037l3.103-.098h3.142l6.329.104 3.164.046c1.05 0 2.065-.052 3.081-.088s2.07 0 3.148 0h3.142c2.015-.015 4.108-.01 6.178-.02z" transform="translate(-920 -486) translate(256 268) translate(648 202) translate(16 16)"/>
                        <g fill="#DEE4F5" fill-rule="nonzero" opacity=".5">
                            <path d="M0.5 0.985L41.996 0.985 41.996 38.158 0.5 38.158z" transform="translate(-920 -486) translate(256 268) translate(648 202) translate(16 16) translate(13.475 4.46)"/>
                            <path d="M42.307 38.453h-7.855c-.844 0-1.71.052-2.604 0-.894-.052-1.782-.047-2.648-.041l-2.581.051-5.185.114c-1.716.063-3.492 0-5.246 0-.877-.03-1.743 0-2.61 0l-2.609.057c-3.502-.036-6.994-.15-10.47-.13-.102.002-.202-.035-.276-.102-.074-.067-.116-.159-.118-.255 0-1.555-.133-3.11-.06-4.665.07-.772.1-1.548.088-2.323 0-.388-.066-.777-.066-1.16v-1.13c0-3.111.077-6.221.06-9.295-.016-3.074.317-6.195.056-9.295l.133-4.665C.35 4.059.316 2.504.29.949c0-.104.088-.19.2-.192 1.726-.031 3.452 0 5.184 0 1.733 0 3.459 0 5.185.036h2.593l2.598-.062c1.726-.052 3.458-.083 5.185-.114C22.96.586 24.692.58 26.419.56c1.726-.02 3.458.057 5.19.078 1.732.02 3.459-.047 5.185-.073C38.521.539 40.253.467 41.98.529h.034c.241.01.43.199.427.425v2.343l.033 2.348c0 .783 0 1.555-.044 2.338-.044.783-.078 1.555-.094 2.327 0 1.556.055 3.11 0 4.666-.04.767 0 1.555.033 2.348.033.793 0 1.555 0 2.348-.056 1.555-.089 3.08-.094 4.64-.006 1.56.06 3.157 0 4.665-.061 1.509 0 3.11.027 4.707.028 1.597 0 3.198.006 4.769zm-.627-.586v-4.603c0-1.493.055-3.032 0-4.613-.056-1.581-.05-3.11 0-4.614.05-1.503-.061-3.11-.134-4.665-.044-.764-.044-1.528 0-2.292.079-.758.1-1.52.067-2.28-.139-1.556 0-3.064 0-4.598 0-1.535-.183-3.11-.1-4.62l.056-2.3V.974l.427.399c-1.726.062-3.453 0-5.185 0-1.732 0-3.458-.063-5.185-.042-1.726.021-3.458.171-5.19.156-1.732-.016-3.459 0-5.185 0-1.727 0-3.459-.042-5.185-.12l-2.598-.088c-.86-.026-1.727 0-2.593 0-3.458.114-6.917.166-10.37.13L.95.995C.894 2.55.794 4.105.855 5.661c.061 1.555.216 3.11.216 4.665 0 .778-.122 1.555-.177 2.322-.04.775-.022 1.55.055 2.323.14 1.551.173 3.11.1 4.665-.083 3.11-.039 6.195-.083 9.294v1.162c0 .383-.061.772-.089 1.16-.028.775-.011 1.55.05 2.323.056 1.555-.083 3.11-.1 4.665l-.31-.29c3.436.052 6.877 0 10.314 0 1.72 0 3.458.057 5.157 0 1.699-.057 3.397-.103 5.13-.057l5.184.073 2.593.03 2.537-.051c.838-.031 1.704 0 2.581 0h2.576c1.671-.078 3.38-.073 5.09-.078z" transform="translate(-920 -486) translate(256 268) translate(648 202) translate(16 16) translate(13.475 4.46)"/>
                        </g>
                        <path fill="#DEE4F5" d="M27.553 24.534c.543 0 .983.44.983.983V36.19c0 .543-.44.983-.983.983h-5.961c-.543 0-.983-.44-.983-.983V25.517c0-.543.44-.983.983-.983h5.961zm10.305-6.691c.543 0 .983.44.983.982V36.19c0 .543-.44.983-.983.983h-5.962c-.542 0-.982-.44-.982-.983V18.825c0-.542.44-.982.982-.982h5.962zm10.305-6.691c.542 0 .982.44.982.982V36.19c0 .543-.44.983-.982.983H42.2c-.543 0-.982-.44-.982-.983V12.134c0-.542.44-.982.982-.982h5.962z" transform="translate(-920 -486) translate(256 268) translate(648 202) translate(16 16)"/>
                        <g fill="#8993A4">
                            <path d="M17.77 9.521c-.312.319-.831.319-1.15.006l-3.806-3.795v14.461c0 .444-.362.807-.812.807-.45 0-.813-.363-.813-.807V5.733l-3.806 3.8c-.318.313-.83.307-1.15-.006-.312-.319-.312-.825.007-1.144l5.187-5.152c.075-.068.156-.125.256-.168.1-.044.206-.063.313-.063.212 0 .412.081.568.231l5.187 5.152c.325.306.332.82.02 1.138z" transform="translate(-920 -486) translate(256 268) translate(648 202) translate(16 16) translate(44.174 32)"/>
                        </g>
                    </g>
                </g>
            </g>
        </g>
    </g>
</svg>
